<svg xmlns="http://www.w3.org/2000/svg" viewBox="0 0 24 24">
  <!-- Sol (modo claro) -->
  <path class="sun" d="M12,7 C9.24,7 7,9.24 7,12 C7,14.76 9.24,17 12,17 C14.76,17 17,14.76 17,12 C17,9.24 14.76,7 12,7 M12,19 C8.13,19 5,15.87 5,12 C5,8.13 8.13,5 12,5 C15.87,5 19,8.13 19,12 C19,15.87 15.87,19 12,19 M12,3 L12,1 L12,3 M12,23 L12,21 L12,23 M3,12 L1,12 L3,12 M23,12 L21,12 L23,12 M5.6,5.6 L4.2,4.2 L5.6,5.6 M18.4,5.6 L19.8,4.2 L18.4,5.6 M5.6,18.4 L4.2,19.8 L5.6,18.4 M18.4,18.4 L19.8,19.8 L18.4,18.4" />
  <!-- Luna (modo oscuro) -->
  <path class="moon" d="M12,3 C7.03,3 3,7.03 3,12 C3,16.97 7.03,21 12,21 C16.97,21 21,16.97 21,12 C21,11.54 20.96,11.08 20.9,10.64 C19.92,12.01 18.32,12.9 16.5,12.9 C13.52,12.9 11.1,10.48 11.1,7.5 C11.1,5.69 11.99,4.08 13.36,3.1 C12.92,3.04 12.46,3 12,3 Z" />
</svg>